<?xml version="1.0" standalone="no"?>
<!DOCTYPE svg PUBLIC "-//W3C//DTD SVG 20010904//EN"
 "http://www.w3.org/TR/2001/REC-SVG-20010904/DTD/svg10.dtd">
<svg version="1.0" xmlns="http://www.w3.org/2000/svg"
 width="512.000000pt" height="512.000000pt" viewBox="0 0 512.000000 512.000000"
 preserveAspectRatio="xMidYMid meet">

<g transform="translate(0.000000,512.000000) scale(0.100000,-0.100000)"
fill="#000000" stroke="none">
<path d="M715 5111 c-97 -24 -190 -105 -224 -196 -12 -31 -21 -67 -21 -80 l0
-25 -119 0 c-130 0 -161 -7 -204 -48 -41 -39 -57 -74 -57 -127 0 -55 14 -83
118 -239 l80 -118 -46 -58 c-145 -180 -227 -396 -239 -631 -21 -413 190 -799
547 -997 30 -17 144 -69 254 -116 109 -47 218 -100 241 -119 59 -45 111 -109
146 -179 33 -65 61 -87 116 -95 59 -7 100 26 149 122 59 113 79 125 212 125
130 0 179 19 217 84 27 47 34 121 14 159 -6 12 -87 124 -180 248 -156 209
-182 249 -161 249 4 0 79 -24 167 -53 l160 -53 55 -106 c81 -158 135 -204 249
-215 97 -10 141 -54 141 -143 0 -57 -16 -83 -115 -180 -106 -104 -128 -144
-128 -225 0 -92 45 -165 133 -211 32 -17 68 -19 375 -24 l340 -5 67 -34 c86
-43 168 -128 211 -218 30 -64 32 -75 32 -178 0 -135 -14 -171 -123 -318 -105
-143 -117 -172 -117 -282 0 -77 4 -98 27 -147 35 -76 98 -142 167 -175 55 -27
61 -28 256 -31 l200 -3 46 29 c64 41 93 102 87 182 -5 74 -40 121 -118 164
l-53 29 104 102 c90 88 111 104 147 110 62 10 124 -22 151 -79 29 -59 26 -119
-9 -229 -51 -161 -36 -265 52 -363 74 -80 122 -97 300 -103 173 -7 176 -9 239
-132 44 -89 98 -140 172 -165 138 -46 297 41 337 184 15 55 12 171 -6 233 -40
133 -129 215 -287 265 -91 28 -91 41 -4 132 45 47 79 93 87 116 19 59 8 130
-29 182 -17 25 -31 54 -31 65 0 11 14 46 30 79 44 86 39 162 -13 218 -44 48
-74 57 -217 62 l-135 5 -3 327 -2 327 31 35 c43 50 80 54 160 20 155 -66 306
-5 356 142 29 85 1 195 -64 255 -15 15 -75 51 -133 80 -134 68 -255 149 -348
233 -60 54 -79 66 -107 66 -18 0 -37 -5 -40 -11 -9 -14 -35 10 -93 85 -44 58
-45 59 -28 86 24 42 21 58 -35 163 -102 195 -119 257 -224 842 -81 455 -94
499 -161 550 -101 77 -229 70 -322 -19 -53 -49 -65 -81 -72 -194 -10 -143 -41
-183 -159 -201 -110 -18 -157 -72 -181 -214 -12 -66 -29 -97 -54 -97 -22 0
-44 34 -51 80 -13 91 -34 145 -67 177 -42 40 -76 53 -141 53 -114 0 -160 32
-201 143 -83 222 -301 355 -528 319 -104 -16 -196 -65 -301 -161 -62 -58 -95
-81 -113 -81 -19 0 -52 25 -124 95 -118 114 -167 140 -295 154 -132 15 -163
38 -235 171 -66 122 -88 140 -170 139 -30 -1 -68 -4 -85 -8z m125 -222 c74
-147 166 -212 332 -233 51 -7 104 -18 118 -25 14 -8 66 -53 115 -101 100 -97
142 -120 222 -120 77 0 114 19 209 109 107 101 154 125 261 129 71 4 88 1 142
-24 75 -33 151 -112 176 -181 35 -96 58 -133 107 -178 57 -52 123 -75 209 -75
64 0 73 -7 83 -65 4 -22 10 -50 13 -62 l5 -23 -892 -2 -892 -3 -20 -25 c-25
-31 -18 -76 18 -107 l25 -23 1404 0 1405 0 4 -22 c3 -13 12 -59 21 -103 8 -44
22 -104 29 -132 l14 -53 -1899 0 c-1802 0 -1899 1 -1899 18 0 38 22 151 42
220 l21 72 272 0 c256 0 274 1 297 20 46 36 42 106 -9 129 -15 7 -104 11 -243
11 -121 0 -220 3 -220 6 0 10 43 67 92 121 50 56 64 88 54 127 -3 14 -51 93
-106 176 -55 83 -101 156 -103 163 -1 9 36 13 138 17 159 6 192 18 219 74 9
19 16 49 16 68 1 78 58 148 136 167 22 5 40 9 41 10 2 1 21 -35 43 -80z m2878
-259 c27 -25 26 -20 82 -330 l46 -255 -309 -3 c-171 -1 -311 -1 -312 0 -5 5
20 123 28 136 5 6 23 12 41 12 64 0 128 31 187 89 68 69 89 123 89 232 0 69 3
81 26 108 32 38 87 43 122 11z m136 -3025 c12 -48 45 -55 280 -55 l214 0 11
-33 c14 -42 55 -86 97 -103 22 -9 74 -14 159 -14 149 0 151 -1 109 -95 l-29
-64 -662 -1 -662 0 12 33 c7 18 12 84 12 154 l0 123 92 0 c110 0 141 10 156
50 l11 30 97 0 c95 0 97 -1 103 -25z m-316 -592 c-77 -79 -88 -98 -88 -150 0
-58 27 -92 110 -137 78 -43 92 -63 65 -90 -14 -13 -40 -16 -153 -16 -75 0
-155 5 -177 11 -84 23 -155 135 -139 221 9 45 18 61 83 150 l56 77 155 1 154
0 -66 -67z m1070 19 c34 -50 41 -96 21 -135 -7 -12 -43 -54 -80 -93 -65 -68
-69 -75 -69 -118 0 -66 32 -97 140 -132 74 -24 92 -35 141 -83 68 -69 89 -123
89 -233 0 -69 -2 -78 -19 -78 -33 0 -71 41 -111 119 -41 83 -95 140 -157 167
-26 11 -80 17 -173 21 -153 5 -178 12 -220 59 -46 52 -48 90 -11 208 25 81 31
118 31 186 -1 47 -7 102 -14 123 l-14 37 207 0 206 0 33 -48z"/>
</g>
</svg>
